<svg width="24" height="24" viewBox="0 0 24 24" fill="none" xmlns="http://www.w3.org/2000/svg">
<path d="M9 2H18C19.1 2 20 2.9 20 4V20C20 21.1 19.1 22 18 22H9C7.9 22 7 21.1 7 20V19C7 18.7348 7.10536 18.4804 7.29289 18.2929C7.48043 18.1054 7.73478 18 8 18C8.26522 18 8.51957 18.1054 8.70711 18.2929C8.89464 18.4804 9 18.7348 9 19V20H18V4H9V5C9 5.26522 8.89464 5.51957 8.70711 5.70711C8.51957 5.89464 8.26522 6 8 6C7.73478 6 7.48043 5.89464 7.29289 5.70711C7.10536 5.51957 7 5.26522 7 5V4C7 2.9 7.9 2 9 2Z" fill="black"/>
<path d="M10.795 16.2949C11.185 16.6849 11.815 16.6849 12.205 16.2949L15.793 12.7069C15.9805 12.5194 16.0858 12.265 16.0858 11.9999C16.0858 11.7347 15.9805 11.4804 15.793 11.2929L12.205 7.70488C12.0149 7.53307 11.7661 7.44087 11.5099 7.44734C11.2538 7.45381 11.0099 7.55844 10.8287 7.73962C10.6476 7.9208 10.5429 8.16467 10.5365 8.42081C10.53 8.67696 10.6222 8.92579 10.794 9.11588L12.67 10.9999H4C3.73478 10.9999 3.48043 11.1052 3.29289 11.2928C3.10536 11.4803 3 11.7347 3 11.9999C3 12.2651 3.10536 12.5195 3.29289 12.707C3.48043 12.8945 3.73478 12.9999 4 12.9999H12.67L10.794 14.8839C10.6073 15.0713 10.5026 15.3251 10.5028 15.5896C10.503 15.8541 10.6081 16.1077 10.795 16.2949Z" fill="black"/>
</svg>
