<svg width="24" height="24" viewBox="0 0 24 24" fill="none" xmlns="http://www.w3.org/2000/svg">
<path d="M9 2H18C19.1 2 20 2.9 20 4V20C20 21.1 19.1 22 18 22H9C7.9 22 7 21.1 7 20V19C7 18.7348 7.10536 18.4804 7.29289 18.2929C7.48043 18.1054 7.73478 18 8 18C8.26522 18 8.51957 18.1054 8.70711 18.2929C8.89464 18.4804 9 18.7348 9 19V20H18V4H9V5C9 5.26522 8.89464 5.51957 8.70711 5.70711C8.51957 5.89464 8.26522 6 8 6C7.73478 6 7.48043 5.89464 7.29289 5.70711C7.10536 5.51957 7 5.26522 7 5V4C7 2.9 7.9 2 9 2Z" fill="black"/>
<path d="M8.29069 7.73954C7.90069 7.34954 7.27069 7.34954 6.88069 7.73954L3.29269 11.3275C3.10522 11.5151 2.99991 11.7694 2.99991 12.0345C2.99991 12.2997 3.10522 12.554 3.29269 12.7415L6.88069 16.3295C7.07078 16.5013 7.31962 16.5935 7.57576 16.5871C7.83191 16.5806 8.07577 16.476 8.25695 16.2948C8.43813 16.1136 8.54277 15.8698 8.54923 15.6136C8.5557 15.3575 8.4635 15.1086 8.29169 14.9185L6.41569 13.0345L15.0857 13.0345C15.3509 13.0345 15.6053 12.9292 15.7928 12.7416C15.9803 12.5541 16.0857 12.2998 16.0857 12.0345C16.0857 11.7693 15.9803 11.515 15.7928 11.3274C15.6053 11.1399 15.3509 11.0345 15.0857 11.0345L6.41569 11.0345L8.29169 9.15054C8.47836 8.96313 8.58308 8.70935 8.5829 8.44484C8.58271 8.18033 8.47763 7.92669 8.29069 7.73954Z" fill="black"/>
</svg>
