<svg width="117" height="117" viewBox="0 0 117 117" fill="none" xmlns="http://www.w3.org/2000/svg">
<circle cx="58.5" cy="58.5" r="58.5" fill="#D9D9D9"/>
<path d="M59 63.0569C66.8677 63.0569 73.8188 57.4545 74.4999 48.179C74.8383 43.5192 73.403 39.1736 70.458 35.9451C67.5443 32.7561 63.4711 31 59 31C54.4931 31 50.4169 32.7455 47.5241 35.9148C44.5984 39.119 43.1721 43.4737 43.5 48.176C44.1692 57.453 51.1189 63.0569 59 63.0569ZM89.9075 92.8917C88.6496 85.7852 84.7225 79.8155 78.5523 75.6262C73.0722 71.906 66.1285 69.8569 59 69.8569C51.8715 69.8569 44.9278 71.906 39.4477 75.6247C33.2775 79.8139 29.3504 85.7836 28.0925 92.8902C27.8048 94.5188 28.1953 96.1293 29.1641 97.3086C29.6035 97.8461 30.1552 98.2768 30.7789 98.5694C31.4026 98.8619 32.0827 99.0089 32.7693 98.9995H85.2307C85.9177 99.0095 86.5982 98.863 87.2225 98.5707C87.8468 98.2784 88.399 97.8477 88.8389 97.3102C89.8047 96.1308 90.1951 94.5204 89.9075 92.8917Z" fill="black"/>
</svg>
