<svg width="20" height="20" viewBox="0 0 20 20" fill="none" xmlns="http://www.w3.org/2000/svg">
<path fill-rule="evenodd" clip-rule="evenodd" d="M4.06919 2.66108C5.08336 1.65275 6.75336 1.83191 7.60252 2.96691L8.65419 4.37025C9.34586 5.29358 9.28419 6.58358 8.46336 7.39941L8.26502 7.59775C8.24263 7.68102 8.24034 7.76842 8.25836 7.85275C8.31086 8.19275 8.59502 8.91275 9.78502 10.0961C10.975 11.2794 11.7 11.5627 12.045 11.6161C12.1319 11.6345 12.2219 11.632 12.3075 11.6086L12.6475 11.2702C13.3775 10.5452 14.4975 10.4094 15.4009 10.9002L16.9925 11.7669C18.3567 12.5069 18.7009 14.3602 17.5842 15.4711L16.4 16.6477C16.0267 17.0186 15.525 17.3277 14.9134 17.3852C13.405 17.5261 9.89086 17.3461 6.19669 13.6736C2.74919 10.2452 2.08752 7.25525 2.00336 5.78191C1.96169 5.03691 2.31336 4.40691 2.76169 3.96191L4.06919 2.66108ZM6.60252 3.71608C6.18002 3.15191 5.39336 3.10691 4.95002 3.54775L3.64169 4.84775C3.36669 5.12108 3.23502 5.42275 3.25169 5.71108C3.31836 6.88191 3.85169 9.57941 7.07836 12.7877C10.4634 16.1527 13.5892 16.2536 14.7975 16.1402C15.0442 16.1177 15.2892 15.9894 15.5184 15.7619L16.7017 14.5844C17.1834 14.1061 17.0775 13.2344 16.3959 12.8644L14.8042 11.9986C14.3642 11.7602 13.8492 11.8386 13.5292 12.1569L13.15 12.5344L12.7084 12.0911C13.15 12.5344 13.1484 12.5352 13.1484 12.5352L13.1475 12.5369L13.145 12.5394L13.1392 12.5444L13.1267 12.5561C13.0913 12.5884 13.0534 12.618 13.0134 12.6444C12.9467 12.6886 12.8584 12.7377 12.7475 12.7786C12.5225 12.8627 12.2242 12.9077 11.8559 12.8511C11.1334 12.7402 10.1759 12.2477 8.90336 10.9827C7.63169 9.71775 7.13502 8.76608 7.02336 8.04441C6.96586 7.67608 7.01169 7.37775 7.09669 7.15275C7.14382 7.0263 7.21077 6.90816 7.29502 6.80275L7.32169 6.77358L7.33336 6.76108L7.33836 6.75608L7.34086 6.75358L7.34252 6.75191L7.58252 6.51358C7.93919 6.15775 7.98919 5.56858 7.65336 5.11941L6.60252 3.71608Z" fill="#777777"/>
</svg>
